<svg width="20" height="20" viewBox="0 0 20 20" fill="none" xmlns="http://www.w3.org/2000/svg">
<path d="M16.4166 10.7501L11.6666 15.5001H9.74998V13.5834L14.5 8.83341L16.4166 10.7501ZM19.25 10.0834C19.25 10.3334 19 10.5834 18.75 10.8334L16.6666 12.9167L15.9166 12.1667L18.0833 10.0001L17.5833 9.50008L17 10.0834L15.0833 8.16675L16.9166 6.41675C17.0833 6.25008 17.4166 6.25008 17.6666 6.41675L18.8333 7.58341C19 7.75008 19 8.08341 18.8333 8.33341C18.6666 8.50008 18.5 8.66675 18.5 8.83341C18.5 9.00008 18.6666 9.16675 18.8333 9.33341C19.0833 9.58341 19.3333 9.83341 19.25 10.0834ZM2.49998 16.6667V3.33341H8.33331V7.50008H12.5V8.75008L14.1666 7.08341V6.66675L9.16665 1.66675H2.49998C1.58331 1.66675 0.833313 2.41675 0.833313 3.33341V16.6667C0.833313 17.5834 1.58331 18.3334 2.49998 18.3334H12.5C13.4166 18.3334 14.1666 17.5834 14.1666 16.6667H2.49998ZM9.16665 14.2501C8.99998 14.2501 8.83331 14.3334 8.74998 14.3334L8.33331 12.5001H7.08331L5.33331 13.9167L5.83331 11.6667H4.58331L3.74998 15.8334H4.99998L7.41665 13.6667L7.91665 15.5834H8.74998L9.16665 15.5001V14.2501Z" fill="white"/>
</svg>
