<svg width="20" height="20" viewBox="0 0 20 20" fill="none" xmlns="http://www.w3.org/2000/svg">
<path d="M8.33335 1.66675H11.6667C12.1087 1.66675 12.5326 1.84234 12.8452 2.1549C13.1578 2.46746 13.3334 2.89139 13.3334 3.33341V5.00008H16.6667C17.1087 5.00008 17.5326 5.17568 17.8452 5.48824C18.1578 5.8008 18.3334 6.22472 18.3334 6.66675V11.2751C17.8516 10.8338 17.2843 10.4963 16.6667 10.2834V6.66675H3.33335V15.8334H10.0667C10.1667 16.4334 10.375 16.9917 10.6667 17.5001H3.33335C2.89133 17.5001 2.4674 17.3245 2.15484 17.0119C1.84228 16.6994 1.66669 16.2754 1.66669 15.8334V6.66675C1.66669 5.75008 2.41669 5.00008 3.33335 5.00008H6.66669V3.33341C6.66669 2.41675 7.41669 1.66675 8.33335 1.66675ZM11.6667 5.00008V3.33341H8.33335V5.00008H11.6667ZM15.8334 15.4167V14.1667H12.5V12.5001H15.8334V11.2501L18.3334 13.3334L15.8334 15.4167ZM14.1667 15.8334H17.5V17.5001H14.1667V18.7501L11.6667 16.6667L14.1667 14.5834V15.8334Z" fill="white"/>
</svg>
