<svg width="20" height="20" viewBox="0 0 20 20" fill="none" xmlns="http://www.w3.org/2000/svg">
<g clip-path="url(#clip0_311_4742)">
<path d="M4.99998 1.66675C4.55795 1.66675 4.13403 1.84234 3.82147 2.1549C3.50891 2.46746 3.33331 2.89139 3.33331 3.33341V16.6667C3.33331 17.5917 4.07498 18.3334 4.99998 18.3334H9.99998V16.6667H4.99998V3.33341H10.8333V7.50008H15V10.0001H16.6666V6.66675L11.6666 1.66675M15 11.6667C14.9491 11.6658 14.8994 11.6828 14.8598 11.7148C14.8202 11.7468 14.7931 11.7918 14.7833 11.8417L14.625 12.9417C14.375 13.0501 14.1333 13.1834 13.9166 13.3334L12.8833 12.9167C12.7916 12.9167 12.6833 12.9167 12.625 13.0251L11.7916 14.4667C11.7416 14.5584 11.7583 14.6667 11.8416 14.7334L12.725 15.4167C12.6917 15.6935 12.6917 15.9733 12.725 16.2501L11.8416 16.9334C11.8042 16.9655 11.7788 17.0095 11.7697 17.058C11.7606 17.1064 11.7684 17.1566 11.7916 17.2001L12.625 18.6417C12.675 18.7501 12.7833 18.7501 12.8833 18.7501L13.9166 18.3334C14.1333 18.4834 14.3666 18.6251 14.625 18.7251L14.7833 19.8251C14.8 19.9251 14.8833 20.0001 15 20.0001H16.6666C16.7583 20.0001 16.85 19.9251 16.8666 19.8251L17.025 18.7251C17.275 18.6167 17.5 18.4834 17.725 18.3334L18.75 18.7501C18.8583 18.7501 18.9666 18.7501 19.025 18.6417L19.8583 17.2001C19.8816 17.1566 19.8893 17.1064 19.8802 17.058C19.8711 17.0095 19.8458 16.9655 19.8083 16.9334L18.9166 16.2501C18.9333 16.1084 18.95 15.9751 18.95 15.8334C18.95 15.6917 18.9416 15.5584 18.9166 15.4167L19.8 14.7334C19.8374 14.7013 19.8628 14.6574 19.8719 14.6089C19.881 14.5604 19.8732 14.5102 19.85 14.4667L19.0166 13.0251C18.9666 12.9167 18.8583 12.9167 18.75 12.9167L17.725 13.3334C17.5 13.1834 17.275 13.0417 17.0166 12.9417L16.8583 11.8417C16.8531 11.7943 16.8307 11.7503 16.7954 11.7181C16.7602 11.6859 16.7144 11.6677 16.6666 11.6667M15.8333 14.5834C16.525 14.5834 17.0833 15.1417 17.0833 15.8334C17.0833 16.5251 16.525 17.0834 15.8333 17.0834C15.1333 17.0834 14.5833 16.5251 14.5833 15.8334C14.5833 15.1417 15.1416 14.5834 15.8333 14.5834Z" fill="white"/>
</g>
<defs>
<clipPath id="clip0_311_4742">
<rect width="20" height="20" fill="white"/>
</clipPath>
</defs>
</svg>
