<svg width="20" height="20" viewBox="0 0 20 20" fill="none" xmlns="http://www.w3.org/2000/svg">
<path d="M11.6666 1.66675H4.99998C4.55795 1.66675 4.13403 1.84234 3.82147 2.1549C3.50891 2.46746 3.33331 2.89139 3.33331 3.33341V16.6667C3.33331 17.5917 4.07498 18.3334 4.99998 18.3334H15C15.925 18.3334 16.6666 17.5917 16.6666 16.6667V6.66675L11.6666 1.66675ZM15 16.6667H4.99998V3.33341H10.8333V7.50008H15V16.6667ZM14.1666 14.6751L13.2 15.0001C12.9863 14.3485 12.5723 13.781 12.0172 13.3785C11.4621 12.976 10.794 12.759 10.1083 12.7584C9.30831 12.7584 8.59165 13.0501 8.02498 13.5251L9.49998 15.0001H5.83331V11.3334L7.29998 12.8001C8.04998 12.1417 9.02498 11.7417 10.1083 11.7417C12 11.7417 13.6083 12.9751 14.1666 14.6751Z" fill="white"/>
</svg>
