<svg width="20" height="20" viewBox="0 0 20 20" fill="none" xmlns="http://www.w3.org/2000/svg">
<path d="M19.1666 9.99992L15.8333 6.66659V9.16659H8.33331V10.8333H15.8333V13.3333M0.833313 14.9999V4.99992C0.833313 4.55789 1.00891 4.13397 1.32147 3.82141C1.63403 3.50885 2.05795 3.33325 2.49998 3.33325H12.5C12.942 3.33325 13.3659 3.50885 13.6785 3.82141C13.9911 4.13397 14.1666 4.55789 14.1666 4.99992V7.49992H12.5V4.99992H2.49998V14.9999H12.5V12.4999H14.1666V14.9999C14.1666 15.4419 13.9911 15.8659 13.6785 16.1784C13.3659 16.491 12.942 16.6666 12.5 16.6666H2.49998C2.05795 16.6666 1.63403 16.491 1.32147 16.1784C1.00891 15.8659 0.833313 15.4419 0.833313 14.9999Z" fill="white"/>
</svg>
