<svg width="20" height="20" viewBox="0 0 20 20" fill="none" xmlns="http://www.w3.org/2000/svg">
<path d="M11.6666 1.66675H4.99998C4.55795 1.66675 4.13403 1.84234 3.82147 2.1549C3.50891 2.46746 3.33331 2.89139 3.33331 3.33341V16.6667C3.33331 17.5917 4.07498 18.3334 4.99998 18.3334H15C15.925 18.3334 16.6666 17.5917 16.6666 16.6667V6.66675L11.6666 1.66675ZM15 16.6667H4.99998V3.33341H10.8333V7.50008H15V16.6667ZM10.75 12.0834L13.1666 15.8334H11.6666L9.99998 13.0001L8.33331 15.8334H6.83331L9.24998 12.0834L6.83331 8.33341H8.33331L9.99998 11.1667L11.6666 8.33341H13.1666L10.75 12.0834Z" fill="white"/>
</svg>
