<svg width="20" height="20" viewBox="0 0 20 20" fill="none" xmlns="http://www.w3.org/2000/svg">
<path d="M18.0833 11.1249L17.25 11.9583L15.5417 10.2916L16.375 9.45825C16.5417 9.28325 16.825 9.27492 17.0167 9.45825L18.0833 10.5249C18.2417 10.6916 18.2417 10.9583 18.0833 11.1249ZM10 15.7833V17.4999H11.7167L16.7667 12.3999L15.0583 10.7333L10 15.7833ZM4.16667 15.8333H8.33333V17.4999H4.16667C3.72464 17.4999 3.30072 17.3243 2.98816 17.0118C2.67559 16.6992 2.5 16.2753 2.5 15.8333V4.16659C2.5 3.24992 3.25 2.49992 4.16667 2.49992H5V0.833252H6.66667V2.49992H13.3333V0.833252H15V2.49992H15.8333C16.2754 2.49992 16.6993 2.67551 17.0118 2.98807C17.3244 3.30063 17.5 3.72456 17.5 4.16659V7.49992H4.16667V15.8333ZM4.16667 4.16659V5.83325H15.8333V4.16659H4.16667Z" fill="white"/>
</svg>
