<svg width="20" height="20" viewBox="0 0 20 20" fill="none" xmlns="http://www.w3.org/2000/svg">
<path d="M15 10.0667V8.33333H16.6667V10.0667C16.3917 10.025 16.1167 10 15.8333 10C15.55 10 15.275 10.025 15 10.0667ZM7.91667 9.16667C7.68333 9.16667 7.5 9.35 7.5 9.58333V10.8333H12.5V9.58333C12.5 9.35 12.3167 9.16667 12.0833 9.16667H7.91667ZM5 15.8333V8.33333H3.33333V17.5H10.25C10.0917 16.975 10 16.4167 10 15.8333H5ZM17.5 7.5H2.5V2.5H17.5V7.5ZM15.8333 4.16667H4.16667V5.83333H15.8333V4.16667ZM19.8333 17C19.9167 17 19.9167 17.0833 19.8333 17.1667L19 18.5833C18.9167 18.6667 18.8333 18.6667 18.75 18.6667L17.75 18.3333C17.5 18.5 17.3333 18.5833 17.0833 18.75L16.9167 19.8333C16.9167 19.9167 16.8333 20 16.75 20H15.0833C15 20 14.9167 19.9167 14.8333 19.8333L14.6667 18.75C14.4167 18.6667 14.1667 18.5 14 18.3333L13 18.75C12.9167 18.75 12.8333 18.75 12.75 18.6667L11.9167 17.25C11.8333 17.1667 11.9167 17.0833 12 17L12.9167 16.3333V15.5L12 14.8333C11.9167 14.75 11.9167 14.6667 11.9167 14.5833L12.75 13.1667C12.8333 13.0833 12.9167 13.0833 13 13.0833L14 13.5C14.25 13.3333 14.4167 13.25 14.6667 13.0833L14.8333 12C14.8333 11.9167 14.9167 11.8333 15.0833 11.8333H16.75C16.8333 11.8333 16.9167 11.9167 16.9167 12L17.0833 13.0833C17.3333 13.1667 17.5833 13.3333 17.8333 13.5L18.8333 13.0833C18.9167 13.0833 19.0833 13.0833 19.0833 13.1667L19.9167 14.5833C20 14.6667 19.9167 14.75 19.8333 14.8333L18.9167 15.5V16.3333L19.8333 17ZM17.0833 15.8333C17.0833 15.1667 16.5 14.5833 15.8333 14.5833C15.1667 14.5833 14.5833 15.1667 14.5833 15.8333C14.5833 16.5 15.1667 17.0833 15.8333 17.0833C16.5 17.0833 17.0833 16.5 17.0833 15.8333Z" fill="white"/>
</svg>
