<svg width="20" height="20" viewBox="0 0 20 20" fill="none" xmlns="http://www.w3.org/2000/svg">
<path d="M3.33335 5.83325V17.4999H15V19.1666H3.33335C2.41669 19.1666 1.66669 18.4166 1.66669 17.4999V5.83325H3.33335ZM10.6667 12.7916L7.91669 10.0416L9.08335 8.87492L10.6667 10.4583L14.25 6.87492L15.4167 8.04159L10.6667 12.7916ZM16.6667 2.49992C17.5834 2.49992 18.3334 3.24992 18.3334 4.16659V14.1666C18.3334 15.0833 17.5834 15.8333 16.6667 15.8333H6.66669C5.75002 15.8333 5.00002 15.0833 5.00002 14.1666V4.16659C5.00002 3.24992 5.75002 2.49992 6.66669 2.49992H9.31669C9.66669 1.53325 10.5834 0.833252 11.6667 0.833252C12.75 0.833252 13.6667 1.53325 14.0167 2.49992H16.6667ZM11.6667 2.49992C11.2084 2.49992 10.8334 2.87492 10.8334 3.33325C10.8334 3.79159 11.2084 4.16659 11.6667 4.16659C12.125 4.16659 12.5 3.79159 12.5 3.33325C12.5 2.87492 12.125 2.49992 11.6667 2.49992ZM8.33335 5.83325V4.16659H6.66669V14.1666H16.6667V4.16659H15V5.83325H8.33335Z" fill="white"/>
</svg>
