<svg width="20" height="20" viewBox="0 0 20 20" fill="none" xmlns="http://www.w3.org/2000/svg">
<path d="M7.50002 0.908447V5.00011H5.83335V0.908447C3.46669 1.30845 1.66669 3.35845 1.66669 5.83345C1.66669 7.68345 2.67502 9.29178 4.16669 10.1584V17.5001C4.16669 17.9584 4.54169 18.3334 5.00002 18.3334H8.33335C8.79169 18.3334 9.16669 17.9584 9.16669 17.5001V10.1584C10.6584 9.29178 11.6667 7.68345 11.6667 5.83345C11.6667 3.35845 9.86669 1.30845 7.50002 0.908447ZM8.33335 8.71678L7.50002 9.20011V16.6668H5.83335V9.20011L5.00002 8.71678C3.97502 8.11678 3.33335 7.01678 3.33335 5.83345C3.33335 5.00011 3.64169 4.21678 4.16669 3.62511V6.66678H9.16669V3.62511C9.69169 4.21678 10 5.00011 10 5.83345C10 7.01678 9.35835 8.11678 8.33335 8.71678ZM17.45 14.9501C17.484 14.7041 17.484 14.4545 17.45 14.2084L18.2584 13.6001C18.2953 13.5733 18.3209 13.5336 18.3301 13.489C18.3394 13.4443 18.3316 13.3977 18.3084 13.3584L17.5417 12.0584C17.5 11.9751 17.3917 11.9418 17.3 11.9751L16.3417 12.3501C16.1417 12.2084 15.9334 12.0834 15.6917 11.9834L15.55 10.9918C15.5413 10.9473 15.5175 10.9072 15.4825 10.8783C15.4476 10.8494 15.4037 10.8336 15.3584 10.8334H13.8167C13.7167 10.8334 13.6334 10.9001 13.6167 10.9918L13.475 11.9834C13.2334 12.0834 13.025 12.2084 12.825 12.3501L11.8667 11.9751C11.7834 11.9418 11.6667 11.9751 11.6334 12.0584L10.8584 13.3584C10.8084 13.4418 10.8334 13.5418 10.9084 13.6001L11.7167 14.2084C11.7084 14.3334 11.6917 14.4584 11.6917 14.5834C11.6917 14.7084 11.7084 14.8251 11.7167 14.9501L10.9084 15.5668C10.8714 15.5936 10.8458 15.6332 10.8366 15.6779C10.8274 15.7226 10.8351 15.7692 10.8584 15.8084L11.6334 17.1084C11.6667 17.1918 11.7834 17.2168 11.8667 17.1918L12.825 16.8084C13.025 16.9584 13.2334 17.0834 13.475 17.1834L13.6167 18.1751C13.6334 18.2668 13.7167 18.3334 13.8167 18.3334H15.3584C15.45 18.3334 15.5334 18.2668 15.55 18.1751L15.6917 17.1834C15.9334 17.0834 16.1417 16.9584 16.3417 16.8084L17.3 17.1918C17.3917 17.2168 17.5 17.1918 17.5417 17.1084L18.3084 15.8084C18.3316 15.7692 18.3394 15.7226 18.3301 15.6779C18.3209 15.6332 18.2953 15.5936 18.2584 15.5668L17.45 14.9501ZM14.5834 15.8334C13.8917 15.8334 13.3334 15.2751 13.3334 14.5834C13.3334 13.8918 13.8917 13.3334 14.5834 13.3334C15.275 13.3334 15.8334 13.8918 15.8334 14.5834C15.8334 15.2751 15.275 15.8334 14.5834 15.8334Z" fill="white"/>
</svg>
