<svg width="20" height="20" viewBox="0 0 20 20" fill="none" xmlns="http://www.w3.org/2000/svg">
<path d="M16.6667 3.33341H14.025L12.5 1.66675H7.49999L5.97499 3.33341H3.33332C2.8913 3.33341 2.46737 3.50901 2.15481 3.82157C1.84225 4.13413 1.66666 4.55805 1.66666 5.00008V15.0001C1.66666 15.4421 1.84225 15.866 2.15481 16.1786C2.46737 16.4912 2.8913 16.6667 3.33332 16.6667H16.6667C17.1087 16.6667 17.5326 16.4912 17.8452 16.1786C18.1577 15.866 18.3333 15.4421 18.3333 15.0001V5.00008C18.3333 4.55805 18.1577 4.13413 17.8452 3.82157C17.5326 3.50901 17.1087 3.33341 16.6667 3.33341ZM16.6667 15.0001H3.33332V5.00008H6.70832L8.23332 3.33341H11.7667L13.2917 5.00008H16.6667V15.0001ZM9.99999 5.83341C8.89492 5.83341 7.83511 6.2724 7.05371 7.0538C6.27231 7.8352 5.83332 8.89501 5.83332 10.0001C5.83332 11.1052 6.27231 12.165 7.05371 12.9464C7.83511 13.7278 8.89492 14.1667 9.99999 14.1667C11.1051 14.1667 12.1649 13.7278 12.9463 12.9464C13.7277 12.165 14.1667 11.1052 14.1667 10.0001C14.1667 8.89501 13.7277 7.8352 12.9463 7.0538C12.1649 6.2724 11.1051 5.83341 9.99999 5.83341ZM9.99999 12.5001C9.33695 12.5001 8.70106 12.2367 8.23222 11.7678C7.76338 11.299 7.49999 10.6631 7.49999 10.0001C7.49999 9.33704 7.76338 8.70115 8.23222 8.23231C8.70106 7.76347 9.33695 7.50008 9.99999 7.50008C10.663 7.50008 11.2989 7.76347 11.7678 8.23231C12.2366 8.70115 12.5 9.33704 12.5 10.0001C12.5 10.6631 12.2366 11.299 11.7678 11.7678C11.2989 12.2367 10.663 12.5001 9.99999 12.5001Z" fill="#151515"/>
</svg>
