<svg width="20" height="20" viewBox="0 0 20 20" fill="none" xmlns="http://www.w3.org/2000/svg">
<path d="M10 1.66675C5.41669 1.66675 1.66669 5.41675 1.66669 10.0001C1.66669 14.5834 5.41669 18.3334 10 18.3334C14.5834 18.3334 18.3334 14.5834 18.3334 10.0001C18.3334 5.41675 14.5834 1.66675 10 1.66675ZM10 16.6667C6.32502 16.6667 3.33335 13.6751 3.33335 10.0001C3.33335 6.32508 6.32502 3.33341 10 3.33341C13.675 3.33341 16.6667 6.32508 16.6667 10.0001C16.6667 13.6751 13.675 16.6667 10 16.6667ZM13.825 6.31675L8.33335 11.8084L6.17502 9.65841L5.00002 10.8334L8.33335 14.1667L15 7.50008L13.825 6.31675Z" fill="#151515"/>
</svg>
