<svg width="20" height="20" viewBox="0 0 20 20" fill="none" xmlns="http://www.w3.org/2000/svg">
<path d="M10.8333 10.8333H13.3333V12.4999H10.8333V14.9999H9.16667V12.4999H6.66667V10.8333H9.16667V8.33325H10.8333V10.8333ZM17.5 4.16659V15.8333C17.5 16.7583 16.7583 17.4999 15.8333 17.4999H4.16667C3.72464 17.4999 3.30072 17.3243 2.98816 17.0118C2.67559 16.6992 2.5 16.2753 2.5 15.8333V4.16659C2.5 3.24159 3.24167 2.49992 4.16667 2.49992H5V0.833252H6.66667V2.49992H13.3333V0.833252H15V2.49992H15.8333C16.2754 2.49992 16.6993 2.67551 17.0118 2.98807C17.3244 3.30063 17.5 3.72456 17.5 4.16659ZM4.16667 4.16659V5.83325H15.8333V4.16659H4.16667ZM15.8333 15.8333V7.49992H4.16667V15.8333H15.8333Z" fill="#151515"/>
</svg>
