<svg width="20" height="20" viewBox="0 0 20 20" fill="none" xmlns="http://www.w3.org/2000/svg">
<path d="M12.5 16.5667C12.5333 16.8167 12.45 17.0833 12.2583 17.2583C12.1812 17.3356 12.0897 17.3969 11.9888 17.4387C11.888 17.4805 11.78 17.502 11.6708 17.502C11.5617 17.502 11.4536 17.4805 11.3528 17.4387C11.252 17.3969 11.1604 17.3356 11.0833 17.2583L7.74165 13.9167C7.65077 13.8278 7.58166 13.7192 7.53974 13.5992C7.49781 13.4792 7.48421 13.3511 7.49999 13.225V8.95833L3.50832 3.85C3.37299 3.67628 3.31193 3.45605 3.33848 3.23744C3.36502 3.01883 3.47702 2.81962 3.64999 2.68333C3.80832 2.56667 3.98332 2.5 4.16665 2.5H15.8333C16.0167 2.5 16.1917 2.56667 16.35 2.68333C16.523 2.81962 16.635 3.01883 16.6615 3.23744C16.688 3.45605 16.627 3.67628 16.4917 3.85L12.5 8.95833V16.5667ZM5.86665 4.16667L9.16665 8.38333V12.9833L10.8333 14.65V8.375L14.1333 4.16667H5.86665Z" fill="#151515"/>
</svg>
