<svg width="20" height="20" viewBox="0 0 20 20" fill="none" xmlns="http://www.w3.org/2000/svg">
<path d="M19.1666 15.0001H12.5V16.6667H19.1666M4.99998 1.66675C4.55795 1.66675 4.13403 1.84234 3.82147 2.1549C3.50891 2.46746 3.33331 2.89139 3.33331 3.33341V16.6667C3.33331 17.5917 4.07498 18.3334 4.99998 18.3334H11.5083C11.2083 17.8167 11 17.2501 10.9 16.6667H4.99998V3.33341H10.8333V7.50008H15V10.9001C15.275 10.8584 15.5583 10.8334 15.8333 10.8334C16.1166 10.8334 16.3916 10.8584 16.6666 10.9001V6.66675L11.6666 1.66675M6.66665 10.0001V11.6667H13.3333V10.0001M6.66665 13.3334V15.0001H10.8333V13.3334H6.66665Z" fill="#151515"/>
</svg>
