<svg width="20" height="20" viewBox="0 0 20 20" fill="none" xmlns="http://www.w3.org/2000/svg">
<path d="M17.5 4.99992H14.8333L13.3333 3.33325H8.33333V4.99992H12.5833L14.1667 6.66658H17.5V16.6666H4.16667V9.16658H2.5V16.6666C2.5 17.5833 3.25 18.3333 4.16667 18.3333H17.5C18.4167 18.3333 19.1667 17.5833 19.1667 16.6666V6.66658C19.1667 5.74992 18.4167 4.99992 17.5 4.99992ZM6.66667 11.6666C6.66667 15.3749 11.1583 17.2416 13.7833 14.6166C16.4083 11.9916 14.5417 7.49992 10.8333 7.49992C8.53333 7.49992 6.66667 9.36658 6.66667 11.6666ZM10.8333 9.16658C11.4904 9.18546 12.1154 9.45491 12.5802 9.91972C13.045 10.3845 13.3145 11.0095 13.3333 11.6666C13.3145 12.3237 13.045 12.9486 12.5802 13.4134C12.1154 13.8783 11.4904 14.1477 10.8333 14.1666C10.1763 14.1477 9.55128 13.8783 9.08647 13.4134C8.62166 12.9486 8.35221 12.3237 8.33333 11.6666C8.35221 11.0095 8.62166 10.3845 9.08647 9.91972C9.55128 9.45491 10.1763 9.18546 10.8333 9.16658ZM4.16667 4.99992H6.66667V3.33325H4.16667V0.833252H2.5V3.33325H0V4.99992H2.5V7.49992H4.16667" fill="#151515"/>
</svg>
