<svg width="20" height="20" viewBox="0 0 20 20" fill="none" xmlns="http://www.w3.org/2000/svg">
<path d="M12.5 3.33325C11.6159 3.33325 10.7681 3.68444 10.143 4.30956C9.51784 4.93468 9.16665 5.78253 9.16665 6.66659C9.16665 7.55064 9.51784 8.39849 10.143 9.02361C10.7681 9.64873 11.6159 9.99992 12.5 9.99992C13.384 9.99992 14.2319 9.64873 14.857 9.02361C15.4821 8.39849 15.8333 7.55064 15.8333 6.66659C15.8333 5.78253 15.4821 4.93468 14.857 4.30956C14.2319 3.68444 13.384 3.33325 12.5 3.33325ZM12.5 4.91659C12.7298 4.91659 12.9574 4.96185 13.1697 5.0498C13.382 5.13774 13.5749 5.26665 13.7374 5.42915C13.8999 5.59165 14.0288 5.78457 14.1168 5.99689C14.2047 6.20921 14.25 6.43677 14.25 6.66659C14.25 6.8964 14.2047 7.12396 14.1168 7.33628C14.0288 7.5486 13.8999 7.74152 13.7374 7.90402C13.5749 8.06652 13.382 8.19543 13.1697 8.28337C12.9574 8.37132 12.7298 8.41659 12.5 8.41659C12.2702 8.41659 12.0426 8.37132 11.8303 8.28337C11.618 8.19543 11.425 8.06652 11.2625 7.90402C11.1 7.74152 10.9711 7.5486 10.8832 7.33628C10.7952 7.12396 10.75 6.8964 10.75 6.66659C10.75 6.20246 10.9344 5.75734 11.2625 5.42915C11.5907 5.10096 12.0359 4.91659 12.5 4.91659ZM3.33331 5.83325V8.33325H0.833313V9.99992H3.33331V12.4999H4.99998V9.99992H7.49998V8.33325H4.99998V5.83325H3.33331ZM12.5 10.8333C10.275 10.8333 5.83331 11.9416 5.83331 14.1666V16.6666H19.1666V14.1666C19.1666 11.9416 14.725 10.8333 12.5 10.8333ZM12.5 12.4166C14.975 12.4166 17.5833 13.6333 17.5833 14.1666V15.0833H7.41665V14.1666C7.41665 13.6333 9.99998 12.4166 12.5 12.4166Z" fill="#151515"/>
</svg>
